<svg width="818" height="78" viewBox="0 0 818 78" xmlns="http://www.w3.org/2000/svg" font-family="'Segoe UI', Ubuntu, Sans-Serif">
  <defs>
    <clipPath id="bar-clip">
      <rect x="18" y="34" width="782" height="8" rx="4.0" />
    </clipPath>
  </defs>
  <style>
    .bg { fill: #2E3440; stroke: #5E81AC; stroke-width: 1; rx: 8; }
    .title { fill: #88C0D0; font-size: 14px; font-weight: 600; }
    .legend { fill: #D8DEE9; font-size: 12px; }
  </style>
  <rect class="bg" x="0.5" y="0.5" width="817" height="77" rx="8" />
  <text x="18" y="20" class="title">My Programming Languages</text>
  <g clip-path="url(#bar-clip)">
    <rect x="18.00" y="34" width="373.07" height="8" fill="#88C0D0" /><rect x="391.07" y="34" width="329.25" height="8" fill="#81A1C1" /><rect x="720.31" y="34" width="34.07" height="8" fill="#5E81AC" /><rect x="754.38" y="34" width="32.00" height="8" fill="#8FBCBB" /><rect x="786.38" y="34" width="13.19" height="8" fill="#B48EAD" /><rect x="799.57" y="34" width="0.43" height="8" fill="#4C566A" />
  </g>
  <circle cx="22.00" cy="62" r="4" fill="#88C0D0" /><text x="32.00" y="66" class="legend">Jupyter Notebook (47.71%)</text><circle cx="230.00" cy="62" r="4" fill="#81A1C1" /><text x="240.00" y="66" class="legend">C++ (42.10%)</text><circle cx="347.52" cy="62" r="4" fill="#5E81AC" /><text x="357.52" y="66" class="legend">Python (4.36%)</text><circle cx="478.96" cy="62" r="4" fill="#8FBCBB" /><text x="488.96" y="66" class="legend">Shell (4.09%)</text><circle cx="603.44" cy="62" r="4" fill="#B48EAD" /><text x="613.44" y="66" class="legend">CMake (1.69%)</text><circle cx="727.92" cy="62" r="4" fill="#4C566A" /><text x="737.92" y="66" class="legend">C (0.05%)</text>
</svg>
